G04 #@! TF.GenerationSoftware,KiCad,Pcbnew,(5.0.2)-1*
G04 #@! TF.CreationDate,2019-05-02T22:28:12+03:00*
G04 #@! TF.ProjectId,uv-lamp,75762d6c-616d-4702-9e6b-696361645f70,rev?*
G04 #@! TF.SameCoordinates,Original*
G04 #@! TF.FileFunction,Copper,L2,Bot*
G04 #@! TF.FilePolarity,Positive*
%FSLAX46Y46*%
G04 Gerber Fmt 4.6, Leading zero omitted, Abs format (unit mm)*
G04 Created by KiCad (PCBNEW (5.0.2)-1) date 02-May-19 22:28:12*
%MOMM*%
%LPD*%
G01*
G04 APERTURE LIST*
G04 #@! TA.AperFunction,SMDPad,CuDef*
%ADD10R,1.600000X2.000000*%
G04 #@! TD*
G04 #@! TA.AperFunction,SMDPad,CuDef*
%ADD11R,2.000000X1.600000*%
G04 #@! TD*
G04 #@! TA.AperFunction,SMDPad,CuDef*
%ADD12R,3.000000X2.200000*%
G04 #@! TD*
G04 #@! TA.AperFunction,SMDPad,CuDef*
%ADD13R,2.000000X2.500000*%
G04 #@! TD*
G04 #@! TA.AperFunction,SMDPad,CuDef*
%ADD14R,2.500000X2.000000*%
G04 #@! TD*
G04 #@! TA.AperFunction,SMDPad,CuDef*
%ADD15R,3.500000X2.300000*%
G04 #@! TD*
G04 #@! TA.AperFunction,SMDPad,CuDef*
%ADD16R,1.700000X3.300000*%
G04 #@! TD*
G04 #@! TA.AperFunction,SMDPad,CuDef*
%ADD17R,4.500000X3.300000*%
G04 #@! TD*
G04 #@! TA.AperFunction,SMDPad,CuDef*
%ADD18R,1.800000X0.900000*%
G04 #@! TD*
G04 #@! TA.AperFunction,Conductor*
%ADD19R,3.200000X3.800000*%
G04 #@! TD*
G04 #@! TA.AperFunction,ComponentPad*
%ADD20C,1.600000*%
G04 #@! TD*
G04 #@! TA.AperFunction,ComponentPad*
%ADD21O,1.700000X1.700000*%
G04 #@! TD*
G04 #@! TA.AperFunction,ComponentPad*
%ADD22R,1.700000X1.700000*%
G04 #@! TD*
G04 #@! TA.AperFunction,ComponentPad*
%ADD23R,3.500000X3.500000*%
G04 #@! TD*
G04 #@! TA.AperFunction,SMDPad,CuDef*
%ADD24R,5.400000X2.900000*%
G04 #@! TD*
G04 #@! TA.AperFunction,SMDPad,CuDef*
%ADD25R,2.000000X3.800000*%
G04 #@! TD*
G04 #@! TA.AperFunction,SMDPad,CuDef*
%ADD26R,2.000000X1.500000*%
G04 #@! TD*
G04 #@! TA.AperFunction,SMDPad,CuDef*
%ADD27R,2.750000X3.050000*%
G04 #@! TD*
G04 #@! TA.AperFunction,SMDPad,CuDef*
%ADD28R,5.800000X6.400000*%
G04 #@! TD*
G04 #@! TA.AperFunction,SMDPad,CuDef*
%ADD29R,1.200000X2.200000*%
G04 #@! TD*
G04 #@! TA.AperFunction,SMDPad,CuDef*
%ADD30R,1.700000X2.000000*%
G04 #@! TD*
G04 #@! TA.AperFunction,SMDPad,CuDef*
%ADD31R,2.700000X3.200000*%
G04 #@! TD*
G04 #@! TA.AperFunction,SMDPad,CuDef*
%ADD32R,0.600000X1.500000*%
G04 #@! TD*
G04 #@! TA.AperFunction,Conductor*
%ADD33C,0.600000*%
G04 #@! TD*
G04 #@! TA.AperFunction,Conductor*
%ADD34C,0.200000*%
G04 #@! TD*
G04 APERTURE END LIST*
D10*
G04 #@! TO.P,C1,2*
G04 #@! TO.N,GND*
X302500000Y-150500000D03*
G04 #@! TO.P,C1,1*
G04 #@! TO.N,Net-(C1-Pad1)*
X302500000Y-154500000D03*
G04 #@! TD*
D11*
G04 #@! TO.P,C2,2*
G04 #@! TO.N,GND*
X305500000Y-140000000D03*
G04 #@! TO.P,C2,1*
G04 #@! TO.N,/SMPS/VREG*
X301500000Y-140000000D03*
G04 #@! TD*
D10*
G04 #@! TO.P,C3,1*
G04 #@! TO.N,+12V*
X325000000Y-157000000D03*
G04 #@! TO.P,C3,2*
G04 #@! TO.N,GND*
X325000000Y-153000000D03*
G04 #@! TD*
D12*
G04 #@! TO.P,C4,1*
G04 #@! TO.N,/LED/A*
X293327878Y-105462084D03*
G04 #@! TO.P,C4,2*
G04 #@! TO.N,GND*
X293327878Y-111262084D03*
G04 #@! TD*
D13*
G04 #@! TO.P,C5,2*
G04 #@! TO.N,/SMPS/VREG*
X301500000Y-143000000D03*
G04 #@! TO.P,C5,1*
G04 #@! TO.N,GND*
X305500000Y-143000000D03*
G04 #@! TD*
D14*
G04 #@! TO.P,C6,1*
G04 #@! TO.N,+12V*
X328000000Y-157000000D03*
G04 #@! TO.P,C6,2*
G04 #@! TO.N,GND*
X328000000Y-153000000D03*
G04 #@! TD*
D12*
G04 #@! TO.P,C7,2*
G04 #@! TO.N,GND*
X298327878Y-111262084D03*
G04 #@! TO.P,C7,1*
G04 #@! TO.N,/LED/A*
X298327878Y-105462084D03*
G04 #@! TD*
G04 #@! TO.P,C8,2*
G04 #@! TO.N,GND*
X332500000Y-152100000D03*
G04 #@! TO.P,C8,1*
G04 #@! TO.N,+12V*
X332500000Y-157900000D03*
G04 #@! TD*
G04 #@! TO.P,C9,1*
G04 #@! TO.N,/LED/A*
X288327878Y-105462084D03*
G04 #@! TO.P,C9,2*
G04 #@! TO.N,GND*
X288327878Y-111262084D03*
G04 #@! TD*
D15*
G04 #@! TO.P,D1,2*
G04 #@! TO.N,GND*
X299600000Y-47500000D03*
G04 #@! TO.P,D1,1*
G04 #@! TO.N,+12V*
X305000000Y-47500000D03*
G04 #@! TD*
D16*
G04 #@! TO.P,D2,2*
G04 #@! TO.N,GND*
X289500000Y-67500000D03*
G04 #@! TO.P,D2,1*
G04 #@! TO.N,Net-(D2-Pad1)*
X289500000Y-73000000D03*
G04 #@! TD*
D17*
G04 #@! TO.P,D3,2*
G04 #@! TO.N,Net-(D3-Pad2)*
X298800000Y-100000000D03*
G04 #@! TO.P,D3,1*
G04 #@! TO.N,/LED/A*
X290000000Y-100000000D03*
G04 #@! TD*
D18*
G04 #@! TO.P,D4,1*
G04 #@! TO.N,Net-(D4-Pad1)*
X120000000Y-84900000D03*
G04 #@! TO.P,D4,2*
G04 #@! TO.N,/LED/A*
X120000000Y-90100000D03*
D19*
G04 #@! TD*
G04 #@! TO.N,/LED/A*
G04 #@! TO.C,D4*
X120000000Y-87500000D03*
D18*
G04 #@! TO.P,D5,1*
G04 #@! TO.N,Net-(D5-Pad1)*
X140000000Y-97400000D03*
G04 #@! TO.P,D5,2*
G04 #@! TO.N,/LED/A*
X140000000Y-102600000D03*
D19*
G04 #@! TD*
G04 #@! TO.N,/LED/A*
G04 #@! TO.C,D5*
X140000000Y-100000000D03*
G04 #@! TO.N,/LED/A*
G04 #@! TO.C,D6*
X140000000Y-125000000D03*
D18*
G04 #@! TD*
G04 #@! TO.P,D6,2*
G04 #@! TO.N,/LED/A*
X140000000Y-122400000D03*
G04 #@! TO.P,D6,1*
G04 #@! TO.N,Net-(D10-Pad2)*
X140000000Y-127600000D03*
G04 #@! TD*
G04 #@! TO.P,D7,1*
G04 #@! TO.N,Net-(D11-Pad2)*
X120000000Y-115100000D03*
G04 #@! TO.P,D7,2*
G04 #@! TO.N,/LED/A*
X120000000Y-109900000D03*
D19*
G04 #@! TD*
G04 #@! TO.N,/LED/A*
G04 #@! TO.C,D7*
X120000000Y-112500000D03*
G04 #@! TO.N,Net-(D4-Pad1)*
G04 #@! TO.C,D8*
X120000000Y-62500000D03*
D18*
G04 #@! TD*
G04 #@! TO.P,D8,2*
G04 #@! TO.N,Net-(D4-Pad1)*
X120000000Y-65100000D03*
G04 #@! TO.P,D8,1*
G04 #@! TO.N,Net-(D12-Pad2)*
X120000000Y-59900000D03*
G04 #@! TD*
D19*
G04 #@! TO.N,Net-(D5-Pad1)*
G04 #@! TO.C,D9*
X140000000Y-75000000D03*
D18*
G04 #@! TD*
G04 #@! TO.P,D9,2*
G04 #@! TO.N,Net-(D5-Pad1)*
X140000000Y-77600000D03*
G04 #@! TO.P,D9,1*
G04 #@! TO.N,Net-(D13-Pad2)*
X140000000Y-72400000D03*
G04 #@! TD*
G04 #@! TO.P,D10,1*
G04 #@! TO.N,Net-(D10-Pad1)*
X140000000Y-152600000D03*
G04 #@! TO.P,D10,2*
G04 #@! TO.N,Net-(D10-Pad2)*
X140000000Y-147400000D03*
D19*
G04 #@! TD*
G04 #@! TO.N,Net-(D10-Pad2)*
G04 #@! TO.C,D10*
X140000000Y-150000000D03*
G04 #@! TO.N,Net-(D11-Pad2)*
G04 #@! TO.C,D11*
X120000000Y-137500000D03*
D18*
G04 #@! TD*
G04 #@! TO.P,D11,2*
G04 #@! TO.N,Net-(D11-Pad2)*
X120000000Y-134900000D03*
G04 #@! TO.P,D11,1*
G04 #@! TO.N,Net-(D11-Pad1)*
X120000000Y-140100000D03*
G04 #@! TD*
G04 #@! TO.P,D12,1*
G04 #@! TO.N,Net-(D12-Pad1)*
X120000000Y-34900000D03*
G04 #@! TO.P,D12,2*
G04 #@! TO.N,Net-(D12-Pad2)*
X120000000Y-40100000D03*
D19*
G04 #@! TD*
G04 #@! TO.N,Net-(D12-Pad2)*
G04 #@! TO.C,D12*
X120000000Y-37500000D03*
G04 #@! TO.N,Net-(D13-Pad2)*
G04 #@! TO.C,D13*
X140000000Y-50000000D03*
D18*
G04 #@! TD*
G04 #@! TO.P,D13,2*
G04 #@! TO.N,Net-(D13-Pad2)*
X140000000Y-52600000D03*
G04 #@! TO.P,D13,1*
G04 #@! TO.N,Net-(D13-Pad1)*
X140000000Y-47400000D03*
G04 #@! TD*
D19*
G04 #@! TO.N,Net-(D10-Pad1)*
G04 #@! TO.C,D14*
X140000000Y-175000000D03*
D18*
G04 #@! TD*
G04 #@! TO.P,D14,2*
G04 #@! TO.N,Net-(D10-Pad1)*
X140000000Y-172400000D03*
G04 #@! TO.P,D14,1*
G04 #@! TO.N,Net-(D14-Pad1)*
X140000000Y-177600000D03*
G04 #@! TD*
G04 #@! TO.P,D15,1*
G04 #@! TO.N,Net-(D15-Pad1)*
X120000000Y-165100000D03*
G04 #@! TO.P,D15,2*
G04 #@! TO.N,Net-(D11-Pad1)*
X120000000Y-159900000D03*
D19*
G04 #@! TD*
G04 #@! TO.N,Net-(D11-Pad1)*
G04 #@! TO.C,D15*
X120000000Y-162500000D03*
G04 #@! TO.N,Net-(D12-Pad1)*
G04 #@! TO.C,D16*
X100000000Y-25000000D03*
D18*
G04 #@! TD*
G04 #@! TO.P,D16,2*
G04 #@! TO.N,Net-(D12-Pad1)*
X100000000Y-22400000D03*
G04 #@! TO.P,D16,1*
G04 #@! TO.N,Net-(D16-Pad1)*
X100000000Y-27600000D03*
G04 #@! TD*
D19*
G04 #@! TO.N,Net-(D13-Pad1)*
G04 #@! TO.C,D17*
X140000000Y-25000000D03*
D18*
G04 #@! TD*
G04 #@! TO.P,D17,2*
G04 #@! TO.N,Net-(D13-Pad1)*
X140000000Y-27600000D03*
G04 #@! TO.P,D17,1*
G04 #@! TO.N,Net-(D17-Pad1)*
X140000000Y-22400000D03*
G04 #@! TD*
G04 #@! TO.P,D18,1*
G04 #@! TO.N,Net-(D18-Pad1)*
X160000000Y-184900000D03*
G04 #@! TO.P,D18,2*
G04 #@! TO.N,Net-(D14-Pad1)*
X160000000Y-190100000D03*
D19*
G04 #@! TD*
G04 #@! TO.N,Net-(D14-Pad1)*
G04 #@! TO.C,D18*
X160000000Y-187500000D03*
G04 #@! TO.N,Net-(D15-Pad1)*
G04 #@! TO.C,D19*
X120000000Y-187600000D03*
D18*
G04 #@! TD*
G04 #@! TO.P,D19,2*
G04 #@! TO.N,Net-(D15-Pad1)*
X120000000Y-185000000D03*
G04 #@! TO.P,D19,1*
G04 #@! TO.N,Net-(D19-Pad1)*
X120000000Y-190200000D03*
G04 #@! TD*
G04 #@! TO.P,D20,1*
G04 #@! TO.N,Net-(D20-Pad1)*
X100000000Y-52600000D03*
G04 #@! TO.P,D20,2*
G04 #@! TO.N,Net-(D16-Pad1)*
X100000000Y-47400000D03*
D19*
G04 #@! TD*
G04 #@! TO.N,Net-(D16-Pad1)*
G04 #@! TO.C,D20*
X100000000Y-50000000D03*
D18*
G04 #@! TO.P,D21,1*
G04 #@! TO.N,Net-(D21-Pad1)*
X160000000Y-40100000D03*
G04 #@! TO.P,D21,2*
G04 #@! TO.N,Net-(D17-Pad1)*
X160000000Y-34900000D03*
D19*
G04 #@! TD*
G04 #@! TO.N,Net-(D17-Pad1)*
G04 #@! TO.C,D21*
X160000000Y-37500000D03*
G04 #@! TO.N,Net-(D18-Pad1)*
G04 #@! TO.C,D22*
X160000000Y-162500000D03*
D18*
G04 #@! TD*
G04 #@! TO.P,D22,2*
G04 #@! TO.N,Net-(D18-Pad1)*
X160000000Y-165100000D03*
G04 #@! TO.P,D22,1*
G04 #@! TO.N,Net-(D22-Pad1)*
X160000000Y-159900000D03*
G04 #@! TD*
G04 #@! TO.P,D23,1*
G04 #@! TO.N,Net-(D23-Pad1)*
X100000000Y-172400000D03*
G04 #@! TO.P,D23,2*
G04 #@! TO.N,Net-(D19-Pad1)*
X100000000Y-177600000D03*
D19*
G04 #@! TD*
G04 #@! TO.N,Net-(D19-Pad1)*
G04 #@! TO.C,D23*
X100000000Y-175000000D03*
G04 #@! TO.N,Net-(D20-Pad1)*
G04 #@! TO.C,D24*
X100000000Y-75000000D03*
D18*
G04 #@! TD*
G04 #@! TO.P,D24,2*
G04 #@! TO.N,Net-(D20-Pad1)*
X100000000Y-72400000D03*
G04 #@! TO.P,D24,1*
G04 #@! TO.N,Net-(D24-Pad1)*
X100000000Y-77600000D03*
G04 #@! TD*
D19*
G04 #@! TO.N,Net-(D21-Pad1)*
G04 #@! TO.C,D25*
X160000000Y-62500000D03*
D18*
G04 #@! TD*
G04 #@! TO.P,D25,2*
G04 #@! TO.N,Net-(D21-Pad1)*
X160000000Y-59900000D03*
G04 #@! TO.P,D25,1*
G04 #@! TO.N,Net-(D25-Pad1)*
X160000000Y-65100000D03*
G04 #@! TD*
G04 #@! TO.P,D26,1*
G04 #@! TO.N,Net-(D26-Pad1)*
X160000000Y-134900000D03*
G04 #@! TO.P,D26,2*
G04 #@! TO.N,Net-(D22-Pad1)*
X160000000Y-140100000D03*
D19*
G04 #@! TD*
G04 #@! TO.N,Net-(D22-Pad1)*
G04 #@! TO.C,D26*
X160000000Y-137500000D03*
G04 #@! TO.N,Net-(D23-Pad1)*
G04 #@! TO.C,D27*
X100000000Y-150000000D03*
D18*
G04 #@! TD*
G04 #@! TO.P,D27,2*
G04 #@! TO.N,Net-(D23-Pad1)*
X100000000Y-152600000D03*
G04 #@! TO.P,D27,1*
G04 #@! TO.N,Net-(D27-Pad1)*
X100000000Y-147400000D03*
G04 #@! TD*
G04 #@! TO.P,D28,1*
G04 #@! TO.N,Net-(D28-Pad1)*
X100000000Y-102600000D03*
G04 #@! TO.P,D28,2*
G04 #@! TO.N,Net-(D24-Pad1)*
X100000000Y-97400000D03*
D19*
G04 #@! TD*
G04 #@! TO.N,Net-(D24-Pad1)*
G04 #@! TO.C,D28*
X100000000Y-100000000D03*
D18*
G04 #@! TO.P,D29,1*
G04 #@! TO.N,Net-(D29-Pad1)*
X160000000Y-90100000D03*
G04 #@! TO.P,D29,2*
G04 #@! TO.N,Net-(D25-Pad1)*
X160000000Y-84900000D03*
D19*
G04 #@! TD*
G04 #@! TO.N,Net-(D25-Pad1)*
G04 #@! TO.C,D29*
X160000000Y-87500000D03*
G04 #@! TO.N,Net-(D26-Pad1)*
G04 #@! TO.C,D30*
X160000000Y-112500000D03*
D18*
G04 #@! TD*
G04 #@! TO.P,D30,2*
G04 #@! TO.N,Net-(D26-Pad1)*
X160000000Y-115100000D03*
G04 #@! TO.P,D30,1*
G04 #@! TO.N,Net-(D30-Pad1)*
X160000000Y-109900000D03*
G04 #@! TD*
G04 #@! TO.P,D31,1*
G04 #@! TO.N,Net-(D31-Pad1)*
X100000000Y-122300000D03*
G04 #@! TO.P,D31,2*
G04 #@! TO.N,Net-(D27-Pad1)*
X100000000Y-127500000D03*
D19*
G04 #@! TD*
G04 #@! TO.N,Net-(D27-Pad1)*
G04 #@! TO.C,D31*
X100000000Y-124900000D03*
G04 #@! TO.N,Net-(D28-Pad1)*
G04 #@! TO.C,D32*
X80000000Y-87500000D03*
D18*
G04 #@! TD*
G04 #@! TO.P,D32,2*
G04 #@! TO.N,Net-(D28-Pad1)*
X80000000Y-90100000D03*
G04 #@! TO.P,D32,1*
G04 #@! TO.N,Net-(D32-Pad1)*
X80000000Y-84900000D03*
G04 #@! TD*
D19*
G04 #@! TO.N,Net-(D29-Pad1)*
G04 #@! TO.C,D33*
X180000000Y-100000000D03*
D18*
G04 #@! TD*
G04 #@! TO.P,D33,2*
G04 #@! TO.N,Net-(D29-Pad1)*
X180000000Y-102600000D03*
G04 #@! TO.P,D33,1*
G04 #@! TO.N,Net-(D33-Pad1)*
X180000000Y-97400000D03*
G04 #@! TD*
G04 #@! TO.P,D34,1*
G04 #@! TO.N,Net-(D34-Pad1)*
X180000000Y-127600000D03*
G04 #@! TO.P,D34,2*
G04 #@! TO.N,Net-(D30-Pad1)*
X180000000Y-122400000D03*
D19*
G04 #@! TD*
G04 #@! TO.N,Net-(D30-Pad1)*
G04 #@! TO.C,D34*
X180000000Y-125000000D03*
G04 #@! TO.N,Net-(D31-Pad1)*
G04 #@! TO.C,D35*
X80000000Y-112500000D03*
D18*
G04 #@! TD*
G04 #@! TO.P,D35,2*
G04 #@! TO.N,Net-(D31-Pad1)*
X80000000Y-109900000D03*
G04 #@! TO.P,D35,1*
G04 #@! TO.N,Net-(D35-Pad1)*
X80000000Y-115100000D03*
G04 #@! TD*
G04 #@! TO.P,D36,1*
G04 #@! TO.N,Net-(D36-Pad1)*
X80000000Y-59900000D03*
G04 #@! TO.P,D36,2*
G04 #@! TO.N,Net-(D32-Pad1)*
X80000000Y-65100000D03*
D19*
G04 #@! TD*
G04 #@! TO.N,Net-(D32-Pad1)*
G04 #@! TO.C,D36*
X80000000Y-62500000D03*
D18*
G04 #@! TO.P,D37,1*
G04 #@! TO.N,Net-(D37-Pad1)*
X180000000Y-72400000D03*
G04 #@! TO.P,D37,2*
G04 #@! TO.N,Net-(D33-Pad1)*
X180000000Y-77600000D03*
D19*
G04 #@! TD*
G04 #@! TO.N,Net-(D33-Pad1)*
G04 #@! TO.C,D37*
X180000000Y-75000000D03*
D18*
G04 #@! TO.P,D38,1*
G04 #@! TO.N,Net-(D38-Pad1)*
X180000000Y-152600000D03*
G04 #@! TO.P,D38,2*
G04 #@! TO.N,Net-(D34-Pad1)*
X180000000Y-147400000D03*
D19*
G04 #@! TD*
G04 #@! TO.N,Net-(D34-Pad1)*
G04 #@! TO.C,D38*
X180000000Y-150000000D03*
D18*
G04 #@! TO.P,D39,1*
G04 #@! TO.N,Net-(D39-Pad1)*
X80000000Y-140100000D03*
G04 #@! TO.P,D39,2*
G04 #@! TO.N,Net-(D35-Pad1)*
X80000000Y-134900000D03*
D19*
G04 #@! TD*
G04 #@! TO.N,Net-(D35-Pad1)*
G04 #@! TO.C,D39*
X80000000Y-137500000D03*
G04 #@! TO.N,Net-(D36-Pad1)*
G04 #@! TO.C,D40*
X80000000Y-37500000D03*
D18*
G04 #@! TD*
G04 #@! TO.P,D40,2*
G04 #@! TO.N,Net-(D36-Pad1)*
X80000000Y-40100000D03*
G04 #@! TO.P,D40,1*
G04 #@! TO.N,Net-(D40-Pad1)*
X80000000Y-34900000D03*
G04 #@! TD*
D19*
G04 #@! TO.N,Net-(D37-Pad1)*
G04 #@! TO.C,D41*
X180000000Y-50000000D03*
D18*
G04 #@! TD*
G04 #@! TO.P,D41,2*
G04 #@! TO.N,Net-(D37-Pad1)*
X180000000Y-52600000D03*
G04 #@! TO.P,D41,1*
G04 #@! TO.N,Net-(D41-Pad1)*
X180000000Y-47400000D03*
G04 #@! TD*
G04 #@! TO.P,D42,1*
G04 #@! TO.N,Net-(D42-Pad1)*
X180000000Y-177600000D03*
G04 #@! TO.P,D42,2*
G04 #@! TO.N,Net-(D38-Pad1)*
X180000000Y-172400000D03*
D19*
G04 #@! TD*
G04 #@! TO.N,Net-(D38-Pad1)*
G04 #@! TO.C,D42*
X180000000Y-175000000D03*
G04 #@! TO.N,Net-(D39-Pad1)*
G04 #@! TO.C,D43*
X80000000Y-162500000D03*
D18*
G04 #@! TD*
G04 #@! TO.P,D43,2*
G04 #@! TO.N,Net-(D39-Pad1)*
X80000000Y-159900000D03*
G04 #@! TO.P,D43,1*
G04 #@! TO.N,Net-(D43-Pad1)*
X80000000Y-165100000D03*
G04 #@! TD*
G04 #@! TO.P,D44,1*
G04 #@! TO.N,Net-(D44-Pad1)*
X60000000Y-27600000D03*
G04 #@! TO.P,D44,2*
G04 #@! TO.N,Net-(D40-Pad1)*
X60000000Y-22400000D03*
D19*
G04 #@! TD*
G04 #@! TO.N,Net-(D40-Pad1)*
G04 #@! TO.C,D44*
X60000000Y-25000000D03*
D18*
G04 #@! TO.P,D45,1*
G04 #@! TO.N,Net-(D45-Pad1)*
X180000000Y-22400000D03*
G04 #@! TO.P,D45,2*
G04 #@! TO.N,Net-(D41-Pad1)*
X180000000Y-27600000D03*
D19*
G04 #@! TD*
G04 #@! TO.N,Net-(D41-Pad1)*
G04 #@! TO.C,D45*
X180000000Y-25000000D03*
G04 #@! TO.N,Net-(D42-Pad1)*
G04 #@! TO.C,D46*
X200000000Y-187500000D03*
D18*
G04 #@! TD*
G04 #@! TO.P,D46,2*
G04 #@! TO.N,Net-(D42-Pad1)*
X200000000Y-190100000D03*
G04 #@! TO.P,D46,1*
G04 #@! TO.N,Net-(D46-Pad1)*
X200000000Y-184900000D03*
G04 #@! TD*
G04 #@! TO.P,D47,1*
G04 #@! TO.N,Net-(D47-Pad1)*
X80000000Y-190100000D03*
G04 #@! TO.P,D47,2*
G04 #@! TO.N,Net-(D43-Pad1)*
X80000000Y-184900000D03*
D19*
G04 #@! TD*
G04 #@! TO.N,Net-(D43-Pad1)*
G04 #@! TO.C,D47*
X80000000Y-187500000D03*
G04 #@! TO.N,Net-(D44-Pad1)*
G04 #@! TO.C,D48*
X60000000Y-50000000D03*
D18*
G04 #@! TD*
G04 #@! TO.P,D48,2*
G04 #@! TO.N,Net-(D44-Pad1)*
X60000000Y-47400000D03*
G04 #@! TO.P,D48,1*
G04 #@! TO.N,Net-(D48-Pad1)*
X60000000Y-52600000D03*
G04 #@! TD*
D19*
G04 #@! TO.N,Net-(D45-Pad1)*
G04 #@! TO.C,D49*
X200000000Y-37500000D03*
D18*
G04 #@! TD*
G04 #@! TO.P,D49,2*
G04 #@! TO.N,Net-(D45-Pad1)*
X200000000Y-34900000D03*
G04 #@! TO.P,D49,1*
G04 #@! TO.N,Net-(D49-Pad1)*
X200000000Y-40100000D03*
G04 #@! TD*
G04 #@! TO.P,D50,1*
G04 #@! TO.N,Net-(D50-Pad1)*
X200000000Y-159900000D03*
G04 #@! TO.P,D50,2*
G04 #@! TO.N,Net-(D46-Pad1)*
X200000000Y-165100000D03*
D19*
G04 #@! TD*
G04 #@! TO.N,Net-(D46-Pad1)*
G04 #@! TO.C,D50*
X200000000Y-162500000D03*
G04 #@! TO.N,Net-(D47-Pad1)*
G04 #@! TO.C,D51*
X60000000Y-175000000D03*
D18*
G04 #@! TD*
G04 #@! TO.P,D51,2*
G04 #@! TO.N,Net-(D47-Pad1)*
X60000000Y-172400000D03*
G04 #@! TO.P,D51,1*
G04 #@! TO.N,Net-(D51-Pad1)*
X60000000Y-177600000D03*
G04 #@! TD*
G04 #@! TO.P,D52,1*
G04 #@! TO.N,Net-(D52-Pad1)*
X60000000Y-77600000D03*
G04 #@! TO.P,D52,2*
G04 #@! TO.N,Net-(D48-Pad1)*
X60000000Y-72400000D03*
D19*
G04 #@! TD*
G04 #@! TO.N,Net-(D48-Pad1)*
G04 #@! TO.C,D52*
X60000000Y-75000000D03*
D18*
G04 #@! TO.P,D53,1*
G04 #@! TO.N,Net-(D53-Pad1)*
X200000000Y-65100000D03*
G04 #@! TO.P,D53,2*
G04 #@! TO.N,Net-(D49-Pad1)*
X200000000Y-59900000D03*
D19*
G04 #@! TD*
G04 #@! TO.N,Net-(D49-Pad1)*
G04 #@! TO.C,D53*
X200000000Y-62500000D03*
G04 #@! TO.N,Net-(D50-Pad1)*
G04 #@! TO.C,D54*
X200000000Y-137600000D03*
D18*
G04 #@! TD*
G04 #@! TO.P,D54,2*
G04 #@! TO.N,Net-(D50-Pad1)*
X200000000Y-140200000D03*
G04 #@! TO.P,D54,1*
G04 #@! TO.N,Net-(D54-Pad1)*
X200000000Y-135000000D03*
G04 #@! TD*
G04 #@! TO.P,D55,1*
G04 #@! TO.N,Net-(D55-Pad1)*
X60000000Y-147400000D03*
G04 #@! TO.P,D55,2*
G04 #@! TO.N,Net-(D51-Pad1)*
X60000000Y-152600000D03*
D19*
G04 #@! TD*
G04 #@! TO.N,Net-(D51-Pad1)*
G04 #@! TO.C,D55*
X60000000Y-150000000D03*
G04 #@! TO.N,Net-(D52-Pad1)*
G04 #@! TO.C,D56*
X60000000Y-100000000D03*
D18*
G04 #@! TD*
G04 #@! TO.P,D56,2*
G04 #@! TO.N,Net-(D52-Pad1)*
X60000000Y-97400000D03*
G04 #@! TO.P,D56,1*
G04 #@! TO.N,Net-(D56-Pad1)*
X60000000Y-102600000D03*
G04 #@! TD*
D19*
G04 #@! TO.N,Net-(D53-Pad1)*
G04 #@! TO.C,D57*
X200000000Y-87400000D03*
D18*
G04 #@! TD*
G04 #@! TO.P,D57,2*
G04 #@! TO.N,Net-(D53-Pad1)*
X200000000Y-84800000D03*
G04 #@! TO.P,D57,1*
G04 #@! TO.N,Net-(D57-Pad1)*
X200000000Y-90000000D03*
G04 #@! TD*
G04 #@! TO.P,D58,1*
G04 #@! TO.N,Net-(D58-Pad1)*
X200000000Y-110000000D03*
G04 #@! TO.P,D58,2*
G04 #@! TO.N,Net-(D54-Pad1)*
X200000000Y-115200000D03*
D19*
G04 #@! TD*
G04 #@! TO.N,Net-(D54-Pad1)*
G04 #@! TO.C,D58*
X200000000Y-112600000D03*
G04 #@! TO.N,Net-(D55-Pad1)*
G04 #@! TO.C,D59*
X60000000Y-125000000D03*
D18*
G04 #@! TD*
G04 #@! TO.P,D59,2*
G04 #@! TO.N,Net-(D55-Pad1)*
X60000000Y-127600000D03*
G04 #@! TO.P,D59,1*
G04 #@! TO.N,Net-(D59-Pad1)*
X60000000Y-122400000D03*
G04 #@! TD*
G04 #@! TO.P,D60,1*
G04 #@! TO.N,Net-(D60-Pad1)*
X40000000Y-84900000D03*
G04 #@! TO.P,D60,2*
G04 #@! TO.N,Net-(D56-Pad1)*
X40000000Y-90100000D03*
D19*
G04 #@! TD*
G04 #@! TO.N,Net-(D56-Pad1)*
G04 #@! TO.C,D60*
X40000000Y-87500000D03*
D18*
G04 #@! TO.P,D61,1*
G04 #@! TO.N,Net-(D61-Pad1)*
X220000000Y-97500000D03*
G04 #@! TO.P,D61,2*
G04 #@! TO.N,Net-(D57-Pad1)*
X220000000Y-102700000D03*
D19*
G04 #@! TD*
G04 #@! TO.N,Net-(D57-Pad1)*
G04 #@! TO.C,D61*
X220000000Y-100100000D03*
G04 #@! TO.N,Net-(D58-Pad1)*
G04 #@! TO.C,D62*
X220000000Y-125000000D03*
D18*
G04 #@! TD*
G04 #@! TO.P,D62,2*
G04 #@! TO.N,Net-(D58-Pad1)*
X220000000Y-122400000D03*
G04 #@! TO.P,D62,1*
G04 #@! TO.N,Net-(D62-Pad1)*
X220000000Y-127600000D03*
G04 #@! TD*
D19*
G04 #@! TO.N,Net-(D59-Pad1)*
G04 #@! TO.C,D63*
X40000000Y-112400000D03*
D18*
G04 #@! TD*
G04 #@! TO.P,D63,2*
G04 #@! TO.N,Net-(D59-Pad1)*
X40000000Y-109800000D03*
G04 #@! TO.P,D63,1*
G04 #@! TO.N,Net-(D63-Pad1)*
X40000000Y-115000000D03*
G04 #@! TD*
D19*
G04 #@! TO.N,Net-(D60-Pad1)*
G04 #@! TO.C,D64*
X40000000Y-62500000D03*
D18*
G04 #@! TD*
G04 #@! TO.P,D64,2*
G04 #@! TO.N,Net-(D60-Pad1)*
X40000000Y-65100000D03*
G04 #@! TO.P,D64,1*
G04 #@! TO.N,Net-(D64-Pad1)*
X40000000Y-59900000D03*
G04 #@! TD*
D19*
G04 #@! TO.N,Net-(D61-Pad1)*
G04 #@! TO.C,D65*
X220000000Y-75100000D03*
D18*
G04 #@! TD*
G04 #@! TO.P,D65,2*
G04 #@! TO.N,Net-(D61-Pad1)*
X220000000Y-77700000D03*
G04 #@! TO.P,D65,1*
G04 #@! TO.N,Net-(D65-Pad1)*
X220000000Y-72500000D03*
G04 #@! TD*
G04 #@! TO.P,D66,1*
G04 #@! TO.N,Net-(D66-Pad1)*
X220000000Y-152600000D03*
G04 #@! TO.P,D66,2*
G04 #@! TO.N,Net-(D62-Pad1)*
X220000000Y-147400000D03*
D19*
G04 #@! TD*
G04 #@! TO.N,Net-(D62-Pad1)*
G04 #@! TO.C,D66*
X220000000Y-150000000D03*
G04 #@! TO.N,Net-(D63-Pad1)*
G04 #@! TO.C,D67*
X40000000Y-137400000D03*
D18*
G04 #@! TD*
G04 #@! TO.P,D67,2*
G04 #@! TO.N,Net-(D63-Pad1)*
X40000000Y-134800000D03*
G04 #@! TO.P,D67,1*
G04 #@! TO.N,Net-(D67-Pad1)*
X40000000Y-140000000D03*
G04 #@! TD*
G04 #@! TO.P,D68,1*
G04 #@! TO.N,Net-(D68-Pad1)*
X40000000Y-34900000D03*
G04 #@! TO.P,D68,2*
G04 #@! TO.N,Net-(D64-Pad1)*
X40000000Y-40100000D03*
D19*
G04 #@! TD*
G04 #@! TO.N,Net-(D64-Pad1)*
G04 #@! TO.C,D68*
X40000000Y-37500000D03*
D18*
G04 #@! TO.P,D69,1*
G04 #@! TO.N,Net-(D69-Pad1)*
X220000000Y-47500000D03*
G04 #@! TO.P,D69,2*
G04 #@! TO.N,Net-(D65-Pad1)*
X220000000Y-52700000D03*
D19*
G04 #@! TD*
G04 #@! TO.N,Net-(D65-Pad1)*
G04 #@! TO.C,D69*
X220000000Y-50100000D03*
G04 #@! TO.N,Net-(D66-Pad1)*
G04 #@! TO.C,D70*
X220000000Y-175000000D03*
D18*
G04 #@! TD*
G04 #@! TO.P,D70,2*
G04 #@! TO.N,Net-(D66-Pad1)*
X220000000Y-172400000D03*
G04 #@! TO.P,D70,1*
G04 #@! TO.N,Net-(D70-Pad1)*
X220000000Y-177600000D03*
G04 #@! TD*
G04 #@! TO.P,D71,1*
G04 #@! TO.N,Net-(D71-Pad1)*
X40000000Y-165100000D03*
G04 #@! TO.P,D71,2*
G04 #@! TO.N,Net-(D67-Pad1)*
X40000000Y-159900000D03*
D19*
G04 #@! TD*
G04 #@! TO.N,Net-(D67-Pad1)*
G04 #@! TO.C,D71*
X40000000Y-162500000D03*
G04 #@! TO.N,Net-(D68-Pad1)*
G04 #@! TO.C,D72*
X20000000Y-25000000D03*
D18*
G04 #@! TD*
G04 #@! TO.P,D72,2*
G04 #@! TO.N,Net-(D68-Pad1)*
X20000000Y-22400000D03*
G04 #@! TO.P,D72,1*
G04 #@! TO.N,Net-(D72-Pad1)*
X20000000Y-27600000D03*
G04 #@! TD*
G04 #@! TO.P,D73,1*
G04 #@! TO.N,Net-(D73-Pad1)*
X220000000Y-22500000D03*
G04 #@! TO.P,D73,2*
G04 #@! TO.N,Net-(D69-Pad1)*
X220000000Y-27700000D03*
D19*
G04 #@! TD*
G04 #@! TO.N,Net-(D69-Pad1)*
G04 #@! TO.C,D73*
X220000000Y-25100000D03*
D18*
G04 #@! TO.P,D74,1*
G04 #@! TO.N,Net-(D74-Pad1)*
X240000000Y-184900000D03*
G04 #@! TO.P,D74,2*
G04 #@! TO.N,Net-(D70-Pad1)*
X240000000Y-190100000D03*
D19*
G04 #@! TD*
G04 #@! TO.N,Net-(D70-Pad1)*
G04 #@! TO.C,D74*
X240000000Y-187500000D03*
G04 #@! TO.N,Net-(D71-Pad1)*
G04 #@! TO.C,D75*
X40000000Y-187500000D03*
D18*
G04 #@! TD*
G04 #@! TO.P,D75,2*
G04 #@! TO.N,Net-(D71-Pad1)*
X40000000Y-184900000D03*
G04 #@! TO.P,D75,1*
G04 #@! TO.N,Net-(D75-Pad1)*
X40000000Y-190100000D03*
G04 #@! TD*
G04 #@! TO.P,D76,1*
G04 #@! TO.N,Net-(D76-Pad1)*
X20000000Y-52600000D03*
G04 #@! TO.P,D76,2*
G04 #@! TO.N,Net-(D72-Pad1)*
X20000000Y-47400000D03*
D19*
G04 #@! TD*
G04 #@! TO.N,Net-(D72-Pad1)*
G04 #@! TO.C,D76*
X20000000Y-50000000D03*
G04 #@! TO.N,Net-(D73-Pad1)*
G04 #@! TO.C,D77*
X240000000Y-37500000D03*
D18*
G04 #@! TD*
G04 #@! TO.P,D77,2*
G04 #@! TO.N,Net-(D73-Pad1)*
X240000000Y-34900000D03*
G04 #@! TO.P,D77,1*
G04 #@! TO.N,Net-(D77-Pad1)*
X240000000Y-40100000D03*
G04 #@! TD*
D19*
G04 #@! TO.N,Net-(D74-Pad1)*
G04 #@! TO.C,D78*
X240000000Y-162500000D03*
D18*
G04 #@! TD*
G04 #@! TO.P,D78,2*
G04 #@! TO.N,Net-(D74-Pad1)*
X240000000Y-165100000D03*
G04 #@! TO.P,D78,1*
G04 #@! TO.N,Net-(D78-Pad1)*
X240000000Y-159900000D03*
G04 #@! TD*
G04 #@! TO.P,D79,1*
G04 #@! TO.N,Net-(D79-Pad1)*
X20000000Y-172400000D03*
G04 #@! TO.P,D79,2*
G04 #@! TO.N,Net-(D75-Pad1)*
X20000000Y-177600000D03*
D19*
G04 #@! TD*
G04 #@! TO.N,Net-(D75-Pad1)*
G04 #@! TO.C,D79*
X20000000Y-175000000D03*
G04 #@! TO.N,Net-(D76-Pad1)*
G04 #@! TO.C,D80*
X20000000Y-75000000D03*
D18*
G04 #@! TD*
G04 #@! TO.P,D80,2*
G04 #@! TO.N,Net-(D76-Pad1)*
X20000000Y-72400000D03*
G04 #@! TO.P,D80,1*
G04 #@! TO.N,Net-(D80-Pad1)*
X20000000Y-77600000D03*
G04 #@! TD*
G04 #@! TO.P,D81,1*
G04 #@! TO.N,Net-(D81-Pad1)*
X240000000Y-60000000D03*
G04 #@! TO.P,D81,2*
G04 #@! TO.N,Net-(D77-Pad1)*
X240000000Y-65200000D03*
D19*
G04 #@! TD*
G04 #@! TO.N,Net-(D77-Pad1)*
G04 #@! TO.C,D81*
X240000000Y-62600000D03*
D18*
G04 #@! TO.P,D82,1*
G04 #@! TO.N,Net-(D82-Pad1)*
X240000000Y-135000000D03*
G04 #@! TO.P,D82,2*
G04 #@! TO.N,Net-(D78-Pad1)*
X240000000Y-140200000D03*
D19*
G04 #@! TD*
G04 #@! TO.N,Net-(D78-Pad1)*
G04 #@! TO.C,D82*
X240000000Y-137600000D03*
G04 #@! TO.N,Net-(D79-Pad1)*
G04 #@! TO.C,D83*
X20000000Y-150000000D03*
D18*
G04 #@! TD*
G04 #@! TO.P,D83,2*
G04 #@! TO.N,Net-(D79-Pad1)*
X20000000Y-152600000D03*
G04 #@! TO.P,D83,1*
G04 #@! TO.N,Net-(D83-Pad1)*
X20000000Y-147400000D03*
G04 #@! TD*
G04 #@! TO.P,D84,1*
G04 #@! TO.N,/LED/C1*
X20000000Y-102600000D03*
G04 #@! TO.P,D84,2*
G04 #@! TO.N,Net-(D80-Pad1)*
X20000000Y-97400000D03*
D19*
G04 #@! TD*
G04 #@! TO.N,Net-(D80-Pad1)*
G04 #@! TO.C,D84*
X20000000Y-100000000D03*
G04 #@! TO.N,Net-(D81-Pad1)*
G04 #@! TO.C,D85*
X240000000Y-87400000D03*
D18*
G04 #@! TD*
G04 #@! TO.P,D85,2*
G04 #@! TO.N,Net-(D81-Pad1)*
X240000000Y-84800000D03*
G04 #@! TO.P,D85,1*
G04 #@! TO.N,/LED/C2*
X240000000Y-90000000D03*
G04 #@! TD*
D19*
G04 #@! TO.N,Net-(D82-Pad1)*
G04 #@! TO.C,D86*
X240000000Y-112500000D03*
D18*
G04 #@! TD*
G04 #@! TO.P,D86,2*
G04 #@! TO.N,Net-(D82-Pad1)*
X240000000Y-115100000D03*
G04 #@! TO.P,D86,1*
G04 #@! TO.N,/LED/C3*
X240000000Y-109900000D03*
G04 #@! TD*
G04 #@! TO.P,D87,1*
G04 #@! TO.N,/LED/C4*
X20000000Y-122400000D03*
G04 #@! TO.P,D87,2*
G04 #@! TO.N,Net-(D83-Pad1)*
X20000000Y-127600000D03*
D19*
G04 #@! TD*
G04 #@! TO.N,Net-(D83-Pad1)*
G04 #@! TO.C,D87*
X20000000Y-125000000D03*
D20*
G04 #@! TO.P,F1,2*
G04 #@! TO.N,Net-(F1-Pad2)*
X300000000Y-42500000D03*
G04 #@! TO.P,F1,1*
G04 #@! TO.N,+12V*
X305000000Y-42500000D03*
G04 #@! TD*
D21*
G04 #@! TO.P,J1,6*
G04 #@! TO.N,GND*
X300040000Y-165080000D03*
G04 #@! TO.P,J1,5*
G04 #@! TO.N,/SMPS/DIM*
X297500000Y-165080000D03*
G04 #@! TO.P,J1,4*
G04 #@! TO.N,GND*
X300040000Y-162540000D03*
G04 #@! TO.P,J1,3*
G04 #@! TO.N,/SMPS/EN*
X297500000Y-162540000D03*
G04 #@! TO.P,J1,2*
G04 #@! TO.N,GND*
X300040000Y-160000000D03*
D22*
G04 #@! TO.P,J1,1*
G04 #@! TO.N,+12V*
X297500000Y-160000000D03*
G04 #@! TD*
D23*
G04 #@! TO.P,J2,3*
G04 #@! TO.N,GND*
X303000000Y-27800000D03*
G04 #@! TO.P,J2,2*
X306000000Y-32500000D03*
G04 #@! TO.P,J2,1*
G04 #@! TO.N,Net-(F1-Pad2)*
X300000000Y-32500000D03*
G04 #@! TD*
D24*
G04 #@! TO.P,L1,2*
G04 #@! TO.N,Net-(D3-Pad2)*
X299000000Y-93950000D03*
G04 #@! TO.P,L1,1*
G04 #@! TO.N,+12V*
X299000000Y-84050000D03*
G04 #@! TD*
D25*
G04 #@! TO.P,Q1,2*
G04 #@! TO.N,/LED/C4*
X277500000Y-122500000D03*
D26*
X283800000Y-122500000D03*
G04 #@! TO.P,Q1,3*
G04 #@! TO.N,Net-(Q1-Pad3)*
X283800000Y-124800000D03*
G04 #@! TO.P,Q1,1*
G04 #@! TO.N,Net-(D2-Pad1)*
X283800000Y-120200000D03*
G04 #@! TD*
G04 #@! TO.P,Q2,1*
G04 #@! TO.N,Net-(D2-Pad1)*
X283800000Y-110200000D03*
G04 #@! TO.P,Q2,3*
G04 #@! TO.N,Net-(Q2-Pad3)*
X283800000Y-114800000D03*
G04 #@! TO.P,Q2,2*
G04 #@! TO.N,/LED/C3*
X283800000Y-112500000D03*
D25*
X277500000Y-112500000D03*
G04 #@! TD*
D26*
G04 #@! TO.P,Q3,1*
G04 #@! TO.N,Net-(D2-Pad1)*
X283800000Y-85200000D03*
G04 #@! TO.P,Q3,3*
G04 #@! TO.N,Net-(Q3-Pad3)*
X283800000Y-89800000D03*
G04 #@! TO.P,Q3,2*
G04 #@! TO.N,/LED/C2*
X283800000Y-87500000D03*
D25*
X277500000Y-87500000D03*
G04 #@! TD*
G04 #@! TO.P,Q4,2*
G04 #@! TO.N,/LED/C1*
X277500000Y-77500000D03*
D26*
X283800000Y-77500000D03*
G04 #@! TO.P,Q4,3*
G04 #@! TO.N,Net-(Q4-Pad3)*
X283800000Y-79800000D03*
G04 #@! TO.P,Q4,1*
G04 #@! TO.N,Net-(D2-Pad1)*
X283800000Y-75200000D03*
G04 #@! TD*
D27*
G04 #@! TO.P,Q5,2*
G04 #@! TO.N,Net-(D3-Pad2)*
X304475000Y-101675000D03*
X307525000Y-98325000D03*
X307525000Y-101675000D03*
X304475000Y-98325000D03*
D28*
X306000000Y-100000000D03*
D29*
G04 #@! TO.P,Q5,3*
G04 #@! TO.N,Net-(Q5-Pad3)*
X303720000Y-106300000D03*
G04 #@! TO.P,Q5,1*
G04 #@! TO.N,Net-(Q5-Pad1)*
X308280000Y-106300000D03*
G04 #@! TD*
D30*
G04 #@! TO.P,R1,1*
G04 #@! TO.N,Net-(R1-Pad1)*
X295000000Y-150500000D03*
G04 #@! TO.P,R1,2*
G04 #@! TO.N,/SMPS/EN*
X295000000Y-154500000D03*
G04 #@! TD*
G04 #@! TO.P,R2,2*
G04 #@! TO.N,GND*
X297500000Y-154500000D03*
G04 #@! TO.P,R2,1*
G04 #@! TO.N,Net-(R1-Pad1)*
X297500000Y-150500000D03*
G04 #@! TD*
G04 #@! TO.P,R3,1*
G04 #@! TO.N,Net-(R3-Pad1)*
X287500000Y-150500000D03*
G04 #@! TO.P,R3,2*
G04 #@! TO.N,GND*
X287500000Y-154500000D03*
G04 #@! TD*
G04 #@! TO.P,R4,2*
G04 #@! TO.N,Net-(C1-Pad1)*
X300000000Y-154500000D03*
G04 #@! TO.P,R4,1*
G04 #@! TO.N,Net-(R4-Pad1)*
X300000000Y-150500000D03*
G04 #@! TD*
G04 #@! TO.P,R5,2*
G04 #@! TO.N,GND*
X282500000Y-154500000D03*
G04 #@! TO.P,R5,1*
G04 #@! TO.N,Net-(R5-Pad1)*
X282500000Y-150500000D03*
G04 #@! TD*
G04 #@! TO.P,R6,1*
G04 #@! TO.N,Net-(R6-Pad1)*
X292500000Y-150500000D03*
G04 #@! TO.P,R6,2*
G04 #@! TO.N,/SMPS/DIM*
X292500000Y-154500000D03*
G04 #@! TD*
G04 #@! TO.P,R7,2*
G04 #@! TO.N,GND*
X290000000Y-154500000D03*
G04 #@! TO.P,R7,1*
G04 #@! TO.N,Net-(R6-Pad1)*
X290000000Y-150500000D03*
G04 #@! TD*
G04 #@! TO.P,R8,1*
G04 #@! TO.N,+12V*
X309000000Y-122000000D03*
G04 #@! TO.P,R8,2*
G04 #@! TO.N,Net-(R8-Pad2)*
X309000000Y-126000000D03*
G04 #@! TD*
G04 #@! TO.P,R9,1*
G04 #@! TO.N,Net-(R9-Pad1)*
X285000000Y-150500000D03*
G04 #@! TO.P,R9,2*
G04 #@! TO.N,GND*
X285000000Y-154500000D03*
G04 #@! TD*
G04 #@! TO.P,R10,2*
G04 #@! TO.N,Net-(D2-Pad1)*
X292000000Y-72500000D03*
G04 #@! TO.P,R10,1*
G04 #@! TO.N,+12V*
X292000000Y-68500000D03*
G04 #@! TD*
G04 #@! TO.P,R11,1*
G04 #@! TO.N,Net-(R11-Pad1)*
X300000000Y-119500000D03*
G04 #@! TO.P,R11,2*
G04 #@! TO.N,GND*
X300000000Y-115500000D03*
G04 #@! TD*
G04 #@! TO.P,R12,2*
G04 #@! TO.N,Net-(R11-Pad1)*
X302500000Y-119500000D03*
G04 #@! TO.P,R12,1*
G04 #@! TO.N,/LED/A*
X302500000Y-115500000D03*
G04 #@! TD*
D31*
G04 #@! TO.P,R13,2*
G04 #@! TO.N,GND*
X312900000Y-110000000D03*
G04 #@! TO.P,R13,1*
G04 #@! TO.N,Net-(Q5-Pad3)*
X305000000Y-110000000D03*
G04 #@! TD*
D32*
G04 #@! TO.P,U1,16*
G04 #@! TO.N,/SMPS/VREG*
X298850000Y-139600000D03*
G04 #@! TO.P,U1,15*
G04 #@! TO.N,Net-(R8-Pad2)*
X297580000Y-139600000D03*
G04 #@! TO.P,U1,14*
G04 #@! TO.N,Net-(Q5-Pad1)*
X296310000Y-139600000D03*
G04 #@! TO.P,U1,13*
G04 #@! TO.N,Net-(Q5-Pad3)*
X295040000Y-139600000D03*
G04 #@! TO.P,U1,12*
G04 #@! TO.N,Net-(R11-Pad1)*
X293770000Y-139600000D03*
G04 #@! TO.P,U1,11*
G04 #@! TO.N,Net-(Q4-Pad3)*
X292500000Y-139600000D03*
G04 #@! TO.P,U1,10*
G04 #@! TO.N,Net-(Q3-Pad3)*
X291230000Y-139600000D03*
G04 #@! TO.P,U1,9*
G04 #@! TO.N,Net-(Q2-Pad3)*
X289960000Y-139600000D03*
G04 #@! TO.P,U1,8*
G04 #@! TO.N,Net-(Q1-Pad3)*
X289960000Y-145000000D03*
G04 #@! TO.P,U1,7*
G04 #@! TO.N,Net-(R5-Pad1)*
X291230000Y-145000000D03*
G04 #@! TO.P,U1,6*
G04 #@! TO.N,Net-(R9-Pad1)*
X292500000Y-145000000D03*
G04 #@! TO.P,U1,5*
G04 #@! TO.N,Net-(R3-Pad1)*
X293770000Y-145000000D03*
G04 #@! TO.P,U1,4*
G04 #@! TO.N,GND*
X295040000Y-145000000D03*
G04 #@! TO.P,U1,3*
G04 #@! TO.N,Net-(R6-Pad1)*
X296310000Y-145000000D03*
G04 #@! TO.P,U1,2*
G04 #@! TO.N,Net-(R1-Pad1)*
X297580000Y-145000000D03*
G04 #@! TO.P,U1,1*
G04 #@! TO.N,Net-(R4-Pad1)*
X298850000Y-145000000D03*
G04 #@! TD*
D33*
G04 #@! TO.N,Net-(D62-Pad1)*
X220000000Y-150000000D02*
X220000000Y-127600000D01*
G04 #@! TO.N,Net-(D66-Pad1)*
X220000000Y-154400002D02*
X220000000Y-152600000D01*
X220000000Y-175000000D02*
X220000000Y-154400002D01*
G04 #@! TO.N,Net-(D70-Pad1)*
X220100000Y-177600000D02*
X220000000Y-177600000D01*
X240000000Y-187500000D02*
X230000000Y-187500000D01*
X230000000Y-187500000D02*
X220100000Y-177600000D01*
G04 #@! TO.N,Net-(D74-Pad1)*
X240000000Y-165100000D02*
X240000000Y-184900000D01*
G04 #@! TO.N,Net-(D78-Pad1)*
X240000000Y-137600000D02*
X240000000Y-159900000D01*
G04 #@! TO.N,Net-(D82-Pad1)*
X240000000Y-115100000D02*
X240000000Y-135000000D01*
G04 #@! TD*
D34*
G04 #@! TO.N,Net-(D82-Pad1)*
G36*
X252637250Y-112500000D02*
X246439333Y-124400000D01*
X233560667Y-124400000D01*
X228912230Y-115475000D01*
X238500000Y-115475000D01*
X238500000Y-115669348D01*
X238591345Y-115889873D01*
X238760128Y-116058656D01*
X238980653Y-116150000D01*
X239400000Y-116150000D01*
X239550000Y-116000000D01*
X239550000Y-115325000D01*
X240450000Y-115325000D01*
X240450000Y-116000000D01*
X240600000Y-116150000D01*
X241019347Y-116150000D01*
X241239872Y-116058656D01*
X241408655Y-115889873D01*
X241500000Y-115669348D01*
X241500000Y-115475000D01*
X241350000Y-115325000D01*
X240450000Y-115325000D01*
X239550000Y-115325000D01*
X238650000Y-115325000D01*
X238500000Y-115475000D01*
X228912230Y-115475000D01*
X227935667Y-113600000D01*
X237800000Y-113600000D01*
X237800000Y-114519348D01*
X237891345Y-114739873D01*
X238060128Y-114908656D01*
X238280653Y-115000000D01*
X239050000Y-115000000D01*
X239175000Y-114875000D01*
X239550000Y-114875000D01*
X239550000Y-114200000D01*
X240450000Y-114200000D01*
X240450000Y-114875000D01*
X240825000Y-114875000D01*
X240950000Y-115000000D01*
X241719347Y-115000000D01*
X241939872Y-114908656D01*
X242108655Y-114739873D01*
X242200000Y-114519348D01*
X242200000Y-113600000D01*
X242050000Y-113450000D01*
X240800000Y-113450000D01*
X240800000Y-114050000D01*
X240600000Y-114050000D01*
X240450000Y-114200000D01*
X239550000Y-114200000D01*
X239400000Y-114050000D01*
X239200000Y-114050000D01*
X239200000Y-113450000D01*
X237950000Y-113450000D01*
X237800000Y-113600000D01*
X227935667Y-113600000D01*
X227362750Y-112500000D01*
X228414493Y-110480652D01*
X237800000Y-110480652D01*
X237800000Y-111400000D01*
X237950000Y-111550000D01*
X239200000Y-111550000D01*
X239200000Y-111080000D01*
X240800000Y-111080000D01*
X240800000Y-111550000D01*
X242050000Y-111550000D01*
X242200000Y-111400000D01*
X242200000Y-110480652D01*
X242108655Y-110260127D01*
X241939872Y-110091344D01*
X241719347Y-110000000D01*
X241511754Y-110000000D01*
X241511754Y-109450000D01*
X241465187Y-109215892D01*
X241332575Y-109017425D01*
X241134108Y-108884813D01*
X240900000Y-108838246D01*
X239100000Y-108838246D01*
X238865892Y-108884813D01*
X238667425Y-109017425D01*
X238534813Y-109215892D01*
X238488246Y-109450000D01*
X238488246Y-110000000D01*
X238280653Y-110000000D01*
X238060128Y-110091344D01*
X237891345Y-110260127D01*
X237800000Y-110480652D01*
X228414493Y-110480652D01*
X233560667Y-100600000D01*
X246439333Y-100600000D01*
X252637250Y-112500000D01*
X252637250Y-112500000D01*
G37*
X252637250Y-112500000D02*
X246439333Y-124400000D01*
X233560667Y-124400000D01*
X228912230Y-115475000D01*
X238500000Y-115475000D01*
X238500000Y-115669348D01*
X238591345Y-115889873D01*
X238760128Y-116058656D01*
X238980653Y-116150000D01*
X239400000Y-116150000D01*
X239550000Y-116000000D01*
X239550000Y-115325000D01*
X240450000Y-115325000D01*
X240450000Y-116000000D01*
X240600000Y-116150000D01*
X241019347Y-116150000D01*
X241239872Y-116058656D01*
X241408655Y-115889873D01*
X241500000Y-115669348D01*
X241500000Y-115475000D01*
X241350000Y-115325000D01*
X240450000Y-115325000D01*
X239550000Y-115325000D01*
X238650000Y-115325000D01*
X238500000Y-115475000D01*
X228912230Y-115475000D01*
X227935667Y-113600000D01*
X237800000Y-113600000D01*
X237800000Y-114519348D01*
X237891345Y-114739873D01*
X238060128Y-114908656D01*
X238280653Y-115000000D01*
X239050000Y-115000000D01*
X239175000Y-114875000D01*
X239550000Y-114875000D01*
X239550000Y-114200000D01*
X240450000Y-114200000D01*
X240450000Y-114875000D01*
X240825000Y-114875000D01*
X240950000Y-115000000D01*
X241719347Y-115000000D01*
X241939872Y-114908656D01*
X242108655Y-114739873D01*
X242200000Y-114519348D01*
X242200000Y-113600000D01*
X242050000Y-113450000D01*
X240800000Y-113450000D01*
X240800000Y-114050000D01*
X240600000Y-114050000D01*
X240450000Y-114200000D01*
X239550000Y-114200000D01*
X239400000Y-114050000D01*
X239200000Y-114050000D01*
X239200000Y-113450000D01*
X237950000Y-113450000D01*
X237800000Y-113600000D01*
X227935667Y-113600000D01*
X227362750Y-112500000D01*
X228414493Y-110480652D01*
X237800000Y-110480652D01*
X237800000Y-111400000D01*
X237950000Y-111550000D01*
X239200000Y-111550000D01*
X239200000Y-111080000D01*
X240800000Y-111080000D01*
X240800000Y-111550000D01*
X242050000Y-111550000D01*
X242200000Y-111400000D01*
X242200000Y-110480652D01*
X242108655Y-110260127D01*
X241939872Y-110091344D01*
X241719347Y-110000000D01*
X241511754Y-110000000D01*
X241511754Y-109450000D01*
X241465187Y-109215892D01*
X241332575Y-109017425D01*
X241134108Y-108884813D01*
X240900000Y-108838246D01*
X239100000Y-108838246D01*
X238865892Y-108884813D01*
X238667425Y-109017425D01*
X238534813Y-109215892D01*
X238488246Y-109450000D01*
X238488246Y-110000000D01*
X238280653Y-110000000D01*
X238060128Y-110091344D01*
X237891345Y-110260127D01*
X237800000Y-110480652D01*
X228414493Y-110480652D01*
X233560667Y-100600000D01*
X246439333Y-100600000D01*
X252637250Y-112500000D01*
G04 #@! TO.N,Net-(D78-Pad1)*
G36*
X239100001Y-133938246D02*
X239100000Y-133938246D01*
X238865892Y-133984813D01*
X238667425Y-134117425D01*
X238534813Y-134315892D01*
X238488246Y-134550000D01*
X238488246Y-135100000D01*
X238280653Y-135100000D01*
X238060128Y-135191344D01*
X237891345Y-135360127D01*
X237800000Y-135580652D01*
X237800000Y-136500000D01*
X237950000Y-136650000D01*
X239200000Y-136650000D01*
X239200000Y-136180000D01*
X240800000Y-136180000D01*
X240800000Y-136650000D01*
X242050000Y-136650000D01*
X242200000Y-136500000D01*
X242200000Y-135580652D01*
X242108655Y-135360127D01*
X241939872Y-135191344D01*
X241719347Y-135100000D01*
X241511754Y-135100000D01*
X241511754Y-134550000D01*
X241465187Y-134315892D01*
X241332575Y-134117425D01*
X241134108Y-133984813D01*
X240900000Y-133938246D01*
X240900000Y-125600000D01*
X246439333Y-125600000D01*
X252637250Y-137500000D01*
X246439333Y-149400000D01*
X233560667Y-149400000D01*
X228964314Y-140575000D01*
X238500000Y-140575000D01*
X238500000Y-140769348D01*
X238591345Y-140989873D01*
X238760128Y-141158656D01*
X238980653Y-141250000D01*
X239400000Y-141250000D01*
X239550000Y-141100000D01*
X239550000Y-140425000D01*
X240450000Y-140425000D01*
X240450000Y-141100000D01*
X240600000Y-141250000D01*
X241019347Y-141250000D01*
X241239872Y-141158656D01*
X241408655Y-140989873D01*
X241500000Y-140769348D01*
X241500000Y-140575000D01*
X241350000Y-140425000D01*
X240450000Y-140425000D01*
X239550000Y-140425000D01*
X238650000Y-140425000D01*
X238500000Y-140575000D01*
X228964314Y-140575000D01*
X227987751Y-138700000D01*
X237800000Y-138700000D01*
X237800000Y-139619348D01*
X237891345Y-139839873D01*
X238060128Y-140008656D01*
X238280653Y-140100000D01*
X239050000Y-140100000D01*
X239175000Y-139975000D01*
X239550000Y-139975000D01*
X239550000Y-139300000D01*
X240450000Y-139300000D01*
X240450000Y-139975000D01*
X240825000Y-139975000D01*
X240950000Y-140100000D01*
X241719347Y-140100000D01*
X241939872Y-140008656D01*
X242108655Y-139839873D01*
X242200000Y-139619348D01*
X242200000Y-138700000D01*
X242050000Y-138550000D01*
X240800000Y-138550000D01*
X240800000Y-139150000D01*
X240600000Y-139150000D01*
X240450000Y-139300000D01*
X239550000Y-139300000D01*
X239400000Y-139150000D01*
X239200000Y-139150000D01*
X239200000Y-138550000D01*
X237950000Y-138550000D01*
X237800000Y-138700000D01*
X227987751Y-138700000D01*
X227362750Y-137500000D01*
X233560667Y-125600000D01*
X239100001Y-125600000D01*
X239100001Y-133938246D01*
X239100001Y-133938246D01*
G37*
X239100001Y-133938246D02*
X239100000Y-133938246D01*
X238865892Y-133984813D01*
X238667425Y-134117425D01*
X238534813Y-134315892D01*
X238488246Y-134550000D01*
X238488246Y-135100000D01*
X238280653Y-135100000D01*
X238060128Y-135191344D01*
X237891345Y-135360127D01*
X237800000Y-135580652D01*
X237800000Y-136500000D01*
X237950000Y-136650000D01*
X239200000Y-136650000D01*
X239200000Y-136180000D01*
X240800000Y-136180000D01*
X240800000Y-136650000D01*
X242050000Y-136650000D01*
X242200000Y-136500000D01*
X242200000Y-135580652D01*
X242108655Y-135360127D01*
X241939872Y-135191344D01*
X241719347Y-135100000D01*
X241511754Y-135100000D01*
X241511754Y-134550000D01*
X241465187Y-134315892D01*
X241332575Y-134117425D01*
X241134108Y-133984813D01*
X240900000Y-133938246D01*
X240900000Y-125600000D01*
X246439333Y-125600000D01*
X252637250Y-137500000D01*
X246439333Y-149400000D01*
X233560667Y-149400000D01*
X228964314Y-140575000D01*
X238500000Y-140575000D01*
X238500000Y-140769348D01*
X238591345Y-140989873D01*
X238760128Y-141158656D01*
X238980653Y-141250000D01*
X239400000Y-141250000D01*
X239550000Y-141100000D01*
X239550000Y-140425000D01*
X240450000Y-140425000D01*
X240450000Y-141100000D01*
X240600000Y-141250000D01*
X241019347Y-141250000D01*
X241239872Y-141158656D01*
X241408655Y-140989873D01*
X241500000Y-140769348D01*
X241500000Y-140575000D01*
X241350000Y-140425000D01*
X240450000Y-140425000D01*
X239550000Y-140425000D01*
X238650000Y-140425000D01*
X238500000Y-140575000D01*
X228964314Y-140575000D01*
X227987751Y-138700000D01*
X237800000Y-138700000D01*
X237800000Y-139619348D01*
X237891345Y-139839873D01*
X238060128Y-140008656D01*
X238280653Y-140100000D01*
X239050000Y-140100000D01*
X239175000Y-139975000D01*
X239550000Y-139975000D01*
X239550000Y-139300000D01*
X240450000Y-139300000D01*
X240450000Y-139975000D01*
X240825000Y-139975000D01*
X240950000Y-140100000D01*
X241719347Y-140100000D01*
X241939872Y-140008656D01*
X242108655Y-139839873D01*
X242200000Y-139619348D01*
X242200000Y-138700000D01*
X242050000Y-138550000D01*
X240800000Y-138550000D01*
X240800000Y-139150000D01*
X240600000Y-139150000D01*
X240450000Y-139300000D01*
X239550000Y-139300000D01*
X239400000Y-139150000D01*
X239200000Y-139150000D01*
X239200000Y-138550000D01*
X237950000Y-138550000D01*
X237800000Y-138700000D01*
X227987751Y-138700000D01*
X227362750Y-137500000D01*
X233560667Y-125600000D01*
X239100001Y-125600000D01*
X239100001Y-133938246D01*
G04 #@! TO.N,Net-(D58-Pad1)*
G36*
X232637250Y-125000000D02*
X226439333Y-136900000D01*
X220900000Y-136900000D01*
X220900000Y-128661754D01*
X221134108Y-128615187D01*
X221332575Y-128482575D01*
X221465187Y-128284108D01*
X221511754Y-128050000D01*
X221511754Y-127500000D01*
X221719347Y-127500000D01*
X221939872Y-127408656D01*
X222108655Y-127239873D01*
X222200000Y-127019348D01*
X222200000Y-126100000D01*
X222050000Y-125950000D01*
X220800000Y-125950000D01*
X220800000Y-126420000D01*
X219200000Y-126420000D01*
X219200000Y-125950000D01*
X217950000Y-125950000D01*
X217800000Y-126100000D01*
X217800000Y-127019348D01*
X217891345Y-127239873D01*
X218060128Y-127408656D01*
X218280653Y-127500000D01*
X218488246Y-127500000D01*
X218488246Y-128050000D01*
X218534813Y-128284108D01*
X218667425Y-128482575D01*
X218865892Y-128615187D01*
X219100000Y-128661754D01*
X219100001Y-128661754D01*
X219100001Y-136900000D01*
X213560667Y-136900000D01*
X207362750Y-125000000D01*
X208414493Y-122980652D01*
X217800000Y-122980652D01*
X217800000Y-123900000D01*
X217950000Y-124050000D01*
X219200000Y-124050000D01*
X219200000Y-123450000D01*
X219400000Y-123450000D01*
X219550000Y-123300000D01*
X219550000Y-122625000D01*
X220450000Y-122625000D01*
X220450000Y-123300000D01*
X220600000Y-123450000D01*
X220800000Y-123450000D01*
X220800000Y-124050000D01*
X222050000Y-124050000D01*
X222200000Y-123900000D01*
X222200000Y-122980652D01*
X222108655Y-122760127D01*
X221939872Y-122591344D01*
X221719347Y-122500000D01*
X220950000Y-122500000D01*
X220825000Y-122625000D01*
X220450000Y-122625000D01*
X219550000Y-122625000D01*
X219175000Y-122625000D01*
X219050000Y-122500000D01*
X218280653Y-122500000D01*
X218060128Y-122591344D01*
X217891345Y-122760127D01*
X217800000Y-122980652D01*
X208414493Y-122980652D01*
X209013451Y-121830652D01*
X218500000Y-121830652D01*
X218500000Y-122025000D01*
X218650000Y-122175000D01*
X219550000Y-122175000D01*
X219550000Y-121500000D01*
X220450000Y-121500000D01*
X220450000Y-122175000D01*
X221350000Y-122175000D01*
X221500000Y-122025000D01*
X221500000Y-121830652D01*
X221408655Y-121610127D01*
X221239872Y-121441344D01*
X221019347Y-121350000D01*
X220600000Y-121350000D01*
X220450000Y-121500000D01*
X219550000Y-121500000D01*
X219400000Y-121350000D01*
X218980653Y-121350000D01*
X218760128Y-121441344D01*
X218591345Y-121610127D01*
X218500000Y-121830652D01*
X209013451Y-121830652D01*
X213560667Y-113100000D01*
X226439333Y-113100000D01*
X232637250Y-125000000D01*
X232637250Y-125000000D01*
G37*
X232637250Y-125000000D02*
X226439333Y-136900000D01*
X220900000Y-136900000D01*
X220900000Y-128661754D01*
X221134108Y-128615187D01*
X221332575Y-128482575D01*
X221465187Y-128284108D01*
X221511754Y-128050000D01*
X221511754Y-127500000D01*
X221719347Y-127500000D01*
X221939872Y-127408656D01*
X222108655Y-127239873D01*
X222200000Y-127019348D01*
X222200000Y-126100000D01*
X222050000Y-125950000D01*
X220800000Y-125950000D01*
X220800000Y-126420000D01*
X219200000Y-126420000D01*
X219200000Y-125950000D01*
X217950000Y-125950000D01*
X217800000Y-126100000D01*
X217800000Y-127019348D01*
X217891345Y-127239873D01*
X218060128Y-127408656D01*
X218280653Y-127500000D01*
X218488246Y-127500000D01*
X218488246Y-128050000D01*
X218534813Y-128284108D01*
X218667425Y-128482575D01*
X218865892Y-128615187D01*
X219100000Y-128661754D01*
X219100001Y-128661754D01*
X219100001Y-136900000D01*
X213560667Y-136900000D01*
X207362750Y-125000000D01*
X208414493Y-122980652D01*
X217800000Y-122980652D01*
X217800000Y-123900000D01*
X217950000Y-124050000D01*
X219200000Y-124050000D01*
X219200000Y-123450000D01*
X219400000Y-123450000D01*
X219550000Y-123300000D01*
X219550000Y-122625000D01*
X220450000Y-122625000D01*
X220450000Y-123300000D01*
X220600000Y-123450000D01*
X220800000Y-123450000D01*
X220800000Y-124050000D01*
X222050000Y-124050000D01*
X222200000Y-123900000D01*
X222200000Y-122980652D01*
X222108655Y-122760127D01*
X221939872Y-122591344D01*
X221719347Y-122500000D01*
X220950000Y-122500000D01*
X220825000Y-122625000D01*
X220450000Y-122625000D01*
X219550000Y-122625000D01*
X219175000Y-122625000D01*
X219050000Y-122500000D01*
X218280653Y-122500000D01*
X218060128Y-122591344D01*
X217891345Y-122760127D01*
X217800000Y-122980652D01*
X208414493Y-122980652D01*
X209013451Y-121830652D01*
X218500000Y-121830652D01*
X218500000Y-122025000D01*
X218650000Y-122175000D01*
X219550000Y-122175000D01*
X219550000Y-121500000D01*
X220450000Y-121500000D01*
X220450000Y-122175000D01*
X221350000Y-122175000D01*
X221500000Y-122025000D01*
X221500000Y-121830652D01*
X221408655Y-121610127D01*
X221239872Y-121441344D01*
X221019347Y-121350000D01*
X220600000Y-121350000D01*
X220450000Y-121500000D01*
X219550000Y-121500000D01*
X219400000Y-121350000D01*
X218980653Y-121350000D01*
X218760128Y-121441344D01*
X218591345Y-121610127D01*
X218500000Y-121830652D01*
X209013451Y-121830652D01*
X213560667Y-113100000D01*
X226439333Y-113100000D01*
X232637250Y-125000000D01*
G04 #@! TO.N,Net-(D74-Pad1)*
G36*
X239100001Y-158838246D02*
X239100000Y-158838246D01*
X238865892Y-158884813D01*
X238667425Y-159017425D01*
X238534813Y-159215892D01*
X238488246Y-159450000D01*
X238488246Y-160000000D01*
X238280653Y-160000000D01*
X238060128Y-160091344D01*
X237891345Y-160260127D01*
X237800000Y-160480652D01*
X237800000Y-161400000D01*
X237950000Y-161550000D01*
X239200000Y-161550000D01*
X239200000Y-161080000D01*
X240800000Y-161080000D01*
X240800000Y-161550000D01*
X242050000Y-161550000D01*
X242200000Y-161400000D01*
X242200000Y-160480652D01*
X242108655Y-160260127D01*
X241939872Y-160091344D01*
X241719347Y-160000000D01*
X241511754Y-160000000D01*
X241511754Y-159450000D01*
X241465187Y-159215892D01*
X241332575Y-159017425D01*
X241134108Y-158884813D01*
X240900000Y-158838246D01*
X240900000Y-150600000D01*
X246439333Y-150600000D01*
X252637250Y-162500000D01*
X246439333Y-174400000D01*
X233560667Y-174400000D01*
X228912230Y-165475000D01*
X238500000Y-165475000D01*
X238500000Y-165669348D01*
X238591345Y-165889873D01*
X238760128Y-166058656D01*
X238980653Y-166150000D01*
X239400000Y-166150000D01*
X239550000Y-166000000D01*
X239550000Y-165325000D01*
X240450000Y-165325000D01*
X240450000Y-166000000D01*
X240600000Y-166150000D01*
X241019347Y-166150000D01*
X241239872Y-166058656D01*
X241408655Y-165889873D01*
X241500000Y-165669348D01*
X241500000Y-165475000D01*
X241350000Y-165325000D01*
X240450000Y-165325000D01*
X239550000Y-165325000D01*
X238650000Y-165325000D01*
X238500000Y-165475000D01*
X228912230Y-165475000D01*
X227935667Y-163600000D01*
X237800000Y-163600000D01*
X237800000Y-164519348D01*
X237891345Y-164739873D01*
X238060128Y-164908656D01*
X238280653Y-165000000D01*
X239050000Y-165000000D01*
X239175000Y-164875000D01*
X239550000Y-164875000D01*
X239550000Y-164200000D01*
X240450000Y-164200000D01*
X240450000Y-164875000D01*
X240825000Y-164875000D01*
X240950000Y-165000000D01*
X241719347Y-165000000D01*
X241939872Y-164908656D01*
X242108655Y-164739873D01*
X242200000Y-164519348D01*
X242200000Y-163600000D01*
X242050000Y-163450000D01*
X240800000Y-163450000D01*
X240800000Y-164050000D01*
X240600000Y-164050000D01*
X240450000Y-164200000D01*
X239550000Y-164200000D01*
X239400000Y-164050000D01*
X239200000Y-164050000D01*
X239200000Y-163450000D01*
X237950000Y-163450000D01*
X237800000Y-163600000D01*
X227935667Y-163600000D01*
X227362750Y-162500000D01*
X233560667Y-150600000D01*
X239100001Y-150600000D01*
X239100001Y-158838246D01*
X239100001Y-158838246D01*
G37*
X239100001Y-158838246D02*
X239100000Y-158838246D01*
X238865892Y-158884813D01*
X238667425Y-159017425D01*
X238534813Y-159215892D01*
X238488246Y-159450000D01*
X238488246Y-160000000D01*
X238280653Y-160000000D01*
X238060128Y-160091344D01*
X237891345Y-160260127D01*
X237800000Y-160480652D01*
X237800000Y-161400000D01*
X237950000Y-161550000D01*
X239200000Y-161550000D01*
X239200000Y-161080000D01*
X240800000Y-161080000D01*
X240800000Y-161550000D01*
X242050000Y-161550000D01*
X242200000Y-161400000D01*
X242200000Y-160480652D01*
X242108655Y-160260127D01*
X241939872Y-160091344D01*
X241719347Y-160000000D01*
X241511754Y-160000000D01*
X241511754Y-159450000D01*
X241465187Y-159215892D01*
X241332575Y-159017425D01*
X241134108Y-158884813D01*
X240900000Y-158838246D01*
X240900000Y-150600000D01*
X246439333Y-150600000D01*
X252637250Y-162500000D01*
X246439333Y-174400000D01*
X233560667Y-174400000D01*
X228912230Y-165475000D01*
X238500000Y-165475000D01*
X238500000Y-165669348D01*
X238591345Y-165889873D01*
X238760128Y-166058656D01*
X238980653Y-166150000D01*
X239400000Y-166150000D01*
X239550000Y-166000000D01*
X239550000Y-165325000D01*
X240450000Y-165325000D01*
X240450000Y-166000000D01*
X240600000Y-166150000D01*
X241019347Y-166150000D01*
X241239872Y-166058656D01*
X241408655Y-165889873D01*
X241500000Y-165669348D01*
X241500000Y-165475000D01*
X241350000Y-165325000D01*
X240450000Y-165325000D01*
X239550000Y-165325000D01*
X238650000Y-165325000D01*
X238500000Y-165475000D01*
X228912230Y-165475000D01*
X227935667Y-163600000D01*
X237800000Y-163600000D01*
X237800000Y-164519348D01*
X237891345Y-164739873D01*
X238060128Y-164908656D01*
X238280653Y-165000000D01*
X239050000Y-165000000D01*
X239175000Y-164875000D01*
X239550000Y-164875000D01*
X239550000Y-164200000D01*
X240450000Y-164200000D01*
X240450000Y-164875000D01*
X240825000Y-164875000D01*
X240950000Y-165000000D01*
X241719347Y-165000000D01*
X241939872Y-164908656D01*
X242108655Y-164739873D01*
X242200000Y-164519348D01*
X242200000Y-163600000D01*
X242050000Y-163450000D01*
X240800000Y-163450000D01*
X240800000Y-164050000D01*
X240600000Y-164050000D01*
X240450000Y-164200000D01*
X239550000Y-164200000D01*
X239400000Y-164050000D01*
X239200000Y-164050000D01*
X239200000Y-163450000D01*
X237950000Y-163450000D01*
X237800000Y-163600000D01*
X227935667Y-163600000D01*
X227362750Y-162500000D01*
X233560667Y-150600000D01*
X239100001Y-150600000D01*
X239100001Y-158838246D01*
G04 #@! TO.N,Net-(D62-Pad1)*
G36*
X232637250Y-150000000D02*
X226439333Y-161900000D01*
X220900000Y-161900000D01*
X220900000Y-153661754D01*
X221134108Y-153615187D01*
X221332575Y-153482575D01*
X221465187Y-153284108D01*
X221511754Y-153050000D01*
X221511754Y-152500000D01*
X221719347Y-152500000D01*
X221939872Y-152408656D01*
X222108655Y-152239873D01*
X222200000Y-152019348D01*
X222200000Y-151100000D01*
X222050000Y-150950000D01*
X220800000Y-150950000D01*
X220800000Y-151420000D01*
X219200000Y-151420000D01*
X219200000Y-150950000D01*
X217950000Y-150950000D01*
X217800000Y-151100000D01*
X217800000Y-152019348D01*
X217891345Y-152239873D01*
X218060128Y-152408656D01*
X218280653Y-152500000D01*
X218488246Y-152500000D01*
X218488246Y-153050000D01*
X218534813Y-153284108D01*
X218667425Y-153482575D01*
X218865892Y-153615187D01*
X219100000Y-153661754D01*
X219100000Y-154488643D01*
X219100001Y-154488648D01*
X219100001Y-161900000D01*
X213560667Y-161900000D01*
X207362750Y-150000000D01*
X208414493Y-147980652D01*
X217800000Y-147980652D01*
X217800000Y-148900000D01*
X217950000Y-149050000D01*
X219200000Y-149050000D01*
X219200000Y-148450000D01*
X219400000Y-148450000D01*
X219550000Y-148300000D01*
X219550000Y-147625000D01*
X220450000Y-147625000D01*
X220450000Y-148300000D01*
X220600000Y-148450000D01*
X220800000Y-148450000D01*
X220800000Y-149050000D01*
X222050000Y-149050000D01*
X222200000Y-148900000D01*
X222200000Y-147980652D01*
X222108655Y-147760127D01*
X221939872Y-147591344D01*
X221719347Y-147500000D01*
X220950000Y-147500000D01*
X220825000Y-147625000D01*
X220450000Y-147625000D01*
X219550000Y-147625000D01*
X219175000Y-147625000D01*
X219050000Y-147500000D01*
X218280653Y-147500000D01*
X218060128Y-147591344D01*
X217891345Y-147760127D01*
X217800000Y-147980652D01*
X208414493Y-147980652D01*
X209013451Y-146830652D01*
X218500000Y-146830652D01*
X218500000Y-147025000D01*
X218650000Y-147175000D01*
X219550000Y-147175000D01*
X219550000Y-146500000D01*
X220450000Y-146500000D01*
X220450000Y-147175000D01*
X221350000Y-147175000D01*
X221500000Y-147025000D01*
X221500000Y-146830652D01*
X221408655Y-146610127D01*
X221239872Y-146441344D01*
X221019347Y-146350000D01*
X220600000Y-146350000D01*
X220450000Y-146500000D01*
X219550000Y-146500000D01*
X219400000Y-146350000D01*
X218980653Y-146350000D01*
X218760128Y-146441344D01*
X218591345Y-146610127D01*
X218500000Y-146830652D01*
X209013451Y-146830652D01*
X213560667Y-138100000D01*
X226439333Y-138100000D01*
X232637250Y-150000000D01*
X232637250Y-150000000D01*
G37*
X232637250Y-150000000D02*
X226439333Y-161900000D01*
X220900000Y-161900000D01*
X220900000Y-153661754D01*
X221134108Y-153615187D01*
X221332575Y-153482575D01*
X221465187Y-153284108D01*
X221511754Y-153050000D01*
X221511754Y-152500000D01*
X221719347Y-152500000D01*
X221939872Y-152408656D01*
X222108655Y-152239873D01*
X222200000Y-152019348D01*
X222200000Y-151100000D01*
X222050000Y-150950000D01*
X220800000Y-150950000D01*
X220800000Y-151420000D01*
X219200000Y-151420000D01*
X219200000Y-150950000D01*
X217950000Y-150950000D01*
X217800000Y-151100000D01*
X217800000Y-152019348D01*
X217891345Y-152239873D01*
X218060128Y-152408656D01*
X218280653Y-152500000D01*
X218488246Y-152500000D01*
X218488246Y-153050000D01*
X218534813Y-153284108D01*
X218667425Y-153482575D01*
X218865892Y-153615187D01*
X219100000Y-153661754D01*
X219100000Y-154488643D01*
X219100001Y-154488648D01*
X219100001Y-161900000D01*
X213560667Y-161900000D01*
X207362750Y-150000000D01*
X208414493Y-147980652D01*
X217800000Y-147980652D01*
X217800000Y-148900000D01*
X217950000Y-149050000D01*
X219200000Y-149050000D01*
X219200000Y-148450000D01*
X219400000Y-148450000D01*
X219550000Y-148300000D01*
X219550000Y-147625000D01*
X220450000Y-147625000D01*
X220450000Y-148300000D01*
X220600000Y-148450000D01*
X220800000Y-148450000D01*
X220800000Y-149050000D01*
X222050000Y-149050000D01*
X222200000Y-148900000D01*
X222200000Y-147980652D01*
X222108655Y-147760127D01*
X221939872Y-147591344D01*
X221719347Y-147500000D01*
X220950000Y-147500000D01*
X220825000Y-147625000D01*
X220450000Y-147625000D01*
X219550000Y-147625000D01*
X219175000Y-147625000D01*
X219050000Y-147500000D01*
X218280653Y-147500000D01*
X218060128Y-147591344D01*
X217891345Y-147760127D01*
X217800000Y-147980652D01*
X208414493Y-147980652D01*
X209013451Y-146830652D01*
X218500000Y-146830652D01*
X218500000Y-147025000D01*
X218650000Y-147175000D01*
X219550000Y-147175000D01*
X219550000Y-146500000D01*
X220450000Y-146500000D01*
X220450000Y-147175000D01*
X221350000Y-147175000D01*
X221500000Y-147025000D01*
X221500000Y-146830652D01*
X221408655Y-146610127D01*
X221239872Y-146441344D01*
X221019347Y-146350000D01*
X220600000Y-146350000D01*
X220450000Y-146500000D01*
X219550000Y-146500000D01*
X219400000Y-146350000D01*
X218980653Y-146350000D01*
X218760128Y-146441344D01*
X218591345Y-146610127D01*
X218500000Y-146830652D01*
X209013451Y-146830652D01*
X213560667Y-138100000D01*
X226439333Y-138100000D01*
X232637250Y-150000000D01*
G04 #@! TO.N,Net-(D70-Pad1)*
G36*
X239100001Y-183838246D02*
X239100000Y-183838246D01*
X238865892Y-183884813D01*
X238667425Y-184017425D01*
X238534813Y-184215892D01*
X238488246Y-184450000D01*
X238488246Y-185000000D01*
X238280653Y-185000000D01*
X238060128Y-185091344D01*
X237891345Y-185260127D01*
X237800000Y-185480652D01*
X237800000Y-186400000D01*
X237950000Y-186550000D01*
X239200000Y-186550000D01*
X239200000Y-186080000D01*
X240800000Y-186080000D01*
X240800000Y-186550000D01*
X242050000Y-186550000D01*
X242200000Y-186400000D01*
X242200000Y-185480652D01*
X242108655Y-185260127D01*
X241939872Y-185091344D01*
X241719347Y-185000000D01*
X241511754Y-185000000D01*
X241511754Y-184450000D01*
X241465187Y-184215892D01*
X241332575Y-184017425D01*
X241134108Y-183884813D01*
X240900000Y-183838246D01*
X240900000Y-175600000D01*
X246439333Y-175600000D01*
X252637250Y-187500000D01*
X246439333Y-199400000D01*
X233560667Y-199400000D01*
X228912230Y-190475000D01*
X238500000Y-190475000D01*
X238500000Y-190669348D01*
X238591345Y-190889873D01*
X238760128Y-191058656D01*
X238980653Y-191150000D01*
X239400000Y-191150000D01*
X239550000Y-191000000D01*
X239550000Y-190325000D01*
X240450000Y-190325000D01*
X240450000Y-191000000D01*
X240600000Y-191150000D01*
X241019347Y-191150000D01*
X241239872Y-191058656D01*
X241408655Y-190889873D01*
X241500000Y-190669348D01*
X241500000Y-190475000D01*
X241350000Y-190325000D01*
X240450000Y-190325000D01*
X239550000Y-190325000D01*
X238650000Y-190325000D01*
X238500000Y-190475000D01*
X228912230Y-190475000D01*
X227935667Y-188600000D01*
X237800000Y-188600000D01*
X237800000Y-189519348D01*
X237891345Y-189739873D01*
X238060128Y-189908656D01*
X238280653Y-190000000D01*
X239050000Y-190000000D01*
X239175000Y-189875000D01*
X239550000Y-189875000D01*
X239550000Y-189200000D01*
X240450000Y-189200000D01*
X240450000Y-189875000D01*
X240825000Y-189875000D01*
X240950000Y-190000000D01*
X241719347Y-190000000D01*
X241939872Y-189908656D01*
X242108655Y-189739873D01*
X242200000Y-189519348D01*
X242200000Y-188600000D01*
X242050000Y-188450000D01*
X240800000Y-188450000D01*
X240800000Y-189050000D01*
X240600000Y-189050000D01*
X240450000Y-189200000D01*
X239550000Y-189200000D01*
X239400000Y-189050000D01*
X239200000Y-189050000D01*
X239200000Y-188450000D01*
X237950000Y-188450000D01*
X237800000Y-188600000D01*
X227935667Y-188600000D01*
X227362750Y-187500000D01*
X233560667Y-175600000D01*
X239100001Y-175600000D01*
X239100001Y-183838246D01*
X239100001Y-183838246D01*
G37*
X239100001Y-183838246D02*
X239100000Y-183838246D01*
X238865892Y-183884813D01*
X238667425Y-184017425D01*
X238534813Y-184215892D01*
X238488246Y-184450000D01*
X238488246Y-185000000D01*
X238280653Y-185000000D01*
X238060128Y-185091344D01*
X237891345Y-185260127D01*
X237800000Y-185480652D01*
X237800000Y-186400000D01*
X237950000Y-186550000D01*
X239200000Y-186550000D01*
X239200000Y-186080000D01*
X240800000Y-186080000D01*
X240800000Y-186550000D01*
X242050000Y-186550000D01*
X242200000Y-186400000D01*
X242200000Y-185480652D01*
X242108655Y-185260127D01*
X241939872Y-185091344D01*
X241719347Y-185000000D01*
X241511754Y-185000000D01*
X241511754Y-184450000D01*
X241465187Y-184215892D01*
X241332575Y-184017425D01*
X241134108Y-183884813D01*
X240900000Y-183838246D01*
X240900000Y-175600000D01*
X246439333Y-175600000D01*
X252637250Y-187500000D01*
X246439333Y-199400000D01*
X233560667Y-199400000D01*
X228912230Y-190475000D01*
X238500000Y-190475000D01*
X238500000Y-190669348D01*
X238591345Y-190889873D01*
X238760128Y-191058656D01*
X238980653Y-191150000D01*
X239400000Y-191150000D01*
X239550000Y-191000000D01*
X239550000Y-190325000D01*
X240450000Y-190325000D01*
X240450000Y-191000000D01*
X240600000Y-191150000D01*
X241019347Y-191150000D01*
X241239872Y-191058656D01*
X241408655Y-190889873D01*
X241500000Y-190669348D01*
X241500000Y-190475000D01*
X241350000Y-190325000D01*
X240450000Y-190325000D01*
X239550000Y-190325000D01*
X238650000Y-190325000D01*
X238500000Y-190475000D01*
X228912230Y-190475000D01*
X227935667Y-188600000D01*
X237800000Y-188600000D01*
X237800000Y-189519348D01*
X237891345Y-189739873D01*
X238060128Y-189908656D01*
X238280653Y-190000000D01*
X239050000Y-190000000D01*
X239175000Y-189875000D01*
X239550000Y-189875000D01*
X239550000Y-189200000D01*
X240450000Y-189200000D01*
X240450000Y-189875000D01*
X240825000Y-189875000D01*
X240950000Y-190000000D01*
X241719347Y-190000000D01*
X241939872Y-189908656D01*
X242108655Y-189739873D01*
X242200000Y-189519348D01*
X242200000Y-188600000D01*
X242050000Y-188450000D01*
X240800000Y-188450000D01*
X240800000Y-189050000D01*
X240600000Y-189050000D01*
X240450000Y-189200000D01*
X239550000Y-189200000D01*
X239400000Y-189050000D01*
X239200000Y-189050000D01*
X239200000Y-188450000D01*
X237950000Y-188450000D01*
X237800000Y-188600000D01*
X227935667Y-188600000D01*
X227362750Y-187500000D01*
X233560667Y-175600000D01*
X239100001Y-175600000D01*
X239100001Y-183838246D01*
G04 #@! TO.N,Net-(D66-Pad1)*
G36*
X232637250Y-175000000D02*
X227889148Y-184116356D01*
X221511754Y-177738963D01*
X221511754Y-177500000D01*
X221719347Y-177500000D01*
X221939872Y-177408656D01*
X222108655Y-177239873D01*
X222200000Y-177019348D01*
X222200000Y-176100000D01*
X222050000Y-175950000D01*
X220800000Y-175950000D01*
X220800000Y-176420000D01*
X219200000Y-176420000D01*
X219200000Y-175950000D01*
X217950000Y-175950000D01*
X217800000Y-176100000D01*
X217800000Y-177019348D01*
X217891345Y-177239873D01*
X218060128Y-177408656D01*
X218280653Y-177500000D01*
X218488246Y-177500000D01*
X218488246Y-178050000D01*
X218534813Y-178284108D01*
X218667425Y-178482575D01*
X218865892Y-178615187D01*
X219100000Y-178661754D01*
X219888963Y-178661754D01*
X227017372Y-185790164D01*
X226439333Y-186900000D01*
X213560667Y-186900000D01*
X207362750Y-175000000D01*
X208414493Y-172980652D01*
X217800000Y-172980652D01*
X217800000Y-173900000D01*
X217950000Y-174050000D01*
X219200000Y-174050000D01*
X219200000Y-173450000D01*
X219400000Y-173450000D01*
X219550000Y-173300000D01*
X219550000Y-172625000D01*
X220450000Y-172625000D01*
X220450000Y-173300000D01*
X220600000Y-173450000D01*
X220800000Y-173450000D01*
X220800000Y-174050000D01*
X222050000Y-174050000D01*
X222200000Y-173900000D01*
X222200000Y-172980652D01*
X222108655Y-172760127D01*
X221939872Y-172591344D01*
X221719347Y-172500000D01*
X220950000Y-172500000D01*
X220825000Y-172625000D01*
X220450000Y-172625000D01*
X219550000Y-172625000D01*
X219175000Y-172625000D01*
X219050000Y-172500000D01*
X218280653Y-172500000D01*
X218060128Y-172591344D01*
X217891345Y-172760127D01*
X217800000Y-172980652D01*
X208414493Y-172980652D01*
X209013451Y-171830652D01*
X218500000Y-171830652D01*
X218500000Y-172025000D01*
X218650000Y-172175000D01*
X219550000Y-172175000D01*
X219550000Y-171500000D01*
X220450000Y-171500000D01*
X220450000Y-172175000D01*
X221350000Y-172175000D01*
X221500000Y-172025000D01*
X221500000Y-171830652D01*
X221408655Y-171610127D01*
X221239872Y-171441344D01*
X221019347Y-171350000D01*
X220600000Y-171350000D01*
X220450000Y-171500000D01*
X219550000Y-171500000D01*
X219400000Y-171350000D01*
X218980653Y-171350000D01*
X218760128Y-171441344D01*
X218591345Y-171610127D01*
X218500000Y-171830652D01*
X209013451Y-171830652D01*
X213560667Y-163100000D01*
X226439333Y-163100000D01*
X232637250Y-175000000D01*
X232637250Y-175000000D01*
G37*
X232637250Y-175000000D02*
X227889148Y-184116356D01*
X221511754Y-177738963D01*
X221511754Y-177500000D01*
X221719347Y-177500000D01*
X221939872Y-177408656D01*
X222108655Y-177239873D01*
X222200000Y-177019348D01*
X222200000Y-176100000D01*
X222050000Y-175950000D01*
X220800000Y-175950000D01*
X220800000Y-176420000D01*
X219200000Y-176420000D01*
X219200000Y-175950000D01*
X217950000Y-175950000D01*
X217800000Y-176100000D01*
X217800000Y-177019348D01*
X217891345Y-177239873D01*
X218060128Y-177408656D01*
X218280653Y-177500000D01*
X218488246Y-177500000D01*
X218488246Y-178050000D01*
X218534813Y-178284108D01*
X218667425Y-178482575D01*
X218865892Y-178615187D01*
X219100000Y-178661754D01*
X219888963Y-178661754D01*
X227017372Y-185790164D01*
X226439333Y-186900000D01*
X213560667Y-186900000D01*
X207362750Y-175000000D01*
X208414493Y-172980652D01*
X217800000Y-172980652D01*
X217800000Y-173900000D01*
X217950000Y-174050000D01*
X219200000Y-174050000D01*
X219200000Y-173450000D01*
X219400000Y-173450000D01*
X219550000Y-173300000D01*
X219550000Y-172625000D01*
X220450000Y-172625000D01*
X220450000Y-173300000D01*
X220600000Y-173450000D01*
X220800000Y-173450000D01*
X220800000Y-174050000D01*
X222050000Y-174050000D01*
X222200000Y-173900000D01*
X222200000Y-172980652D01*
X222108655Y-172760127D01*
X221939872Y-172591344D01*
X221719347Y-172500000D01*
X220950000Y-172500000D01*
X220825000Y-172625000D01*
X220450000Y-172625000D01*
X219550000Y-172625000D01*
X219175000Y-172625000D01*
X219050000Y-172500000D01*
X218280653Y-172500000D01*
X218060128Y-172591344D01*
X217891345Y-172760127D01*
X217800000Y-172980652D01*
X208414493Y-172980652D01*
X209013451Y-171830652D01*
X218500000Y-171830652D01*
X218500000Y-172025000D01*
X218650000Y-172175000D01*
X219550000Y-172175000D01*
X219550000Y-171500000D01*
X220450000Y-171500000D01*
X220450000Y-172175000D01*
X221350000Y-172175000D01*
X221500000Y-172025000D01*
X221500000Y-171830652D01*
X221408655Y-171610127D01*
X221239872Y-171441344D01*
X221019347Y-171350000D01*
X220600000Y-171350000D01*
X220450000Y-171500000D01*
X219550000Y-171500000D01*
X219400000Y-171350000D01*
X218980653Y-171350000D01*
X218760128Y-171441344D01*
X218591345Y-171610127D01*
X218500000Y-171830652D01*
X209013451Y-171830652D01*
X213560667Y-163100000D01*
X226439333Y-163100000D01*
X232637250Y-175000000D01*
G04 #@! TD*
M02*
